/* XPM */
static char * button2_xpm[] = {
"16 16 3 1",
" 	c #5D5D8F8FA0A0",
".	c #000000000000",
"X	c #0000FFFF0000",
"                ",
"      ....      ",
"    ........    ",
"   ..........   ",
"  .....XX.....  ",
"  ...XXXXXX...  ",
" ....XXXXXX.... ",
" ...XXXXXXXX... ",
" ...XXXXXXXX... ",
" ....XXXXXX.... ",
"  ...XXXXXX...  ",
"  .....XX.....  ",
"   ..........   ",
"    ........    ",
"      ....      ",
"                "};
