/* XPM */
/* Drawn for the K Desktop Environment */
/* See http://www.kde.org */
static char*mid[]={
"32 32 13 1",
"# c #000000",
"c c #c0c0c0",
"h c #ffffff",
"a c #808080",
"g c #585858",
"b c #a0a0a4",
"j c #008080",
"i c #00c0c0",
"d c #ff0000",
"f c #00ff00",
"e c #ffff00",
"k c #004040",
". c None",
"................##..............",
"..............##aa##............",
"............##abbbba##..........",
"..........##abbbbbbbba##........",
"........##abbbbbbbbbbbba##......",
"......##acbbbbbbbbbbbbbbba##....",
"......#bbbccbbbbbbbbbbbbbbba##..",
"......#b#abbccbbbbbbbbbbbbbbba##",
"......#b#d#abbccbbbbbbbbbbbbbba#",
"......#b#e###abbccbbbbbbbbbbaaa#",
"......#b#f#e###bbbccbbbbbbaaaaa#",
"......#ba##f###bbgbbccbbaaaaaaa#",
".......#gba##f#bbgbgbbcaaaaaaaa#",
"......#ccggba##b##bgbgbaaaaaaaa#",
"......#bbccggbbbbgbg##baaaaaaaa#",
"......#b#abccggbbg##bgbaaaaaaaa#",
"......#b###abccggbbgbgbaaaaaag#h",
"......#b###d#abccggbbgbaaaaggbb#",
"......#b#f#e###bbccggbbaaggbbaa#",
"......#ba##f###b#bbccggggbbaaaa#",
"......##aba##f#bbb#bbccbbaaaaaa#",
"........##aba##b#bbb#bbaaaaaaaa#",
"..........##abbbgb#bbbbaaaaaaaa#",
"....##......##abbbgb#bbaaaaaaaa#",
"..##ii##......##abbbgbbaaaaaag##",
"##iihiii##......##abbbbaaaag##..",
"#jjiiiiiii##......##abbaag##....",
"##jjjiiihiii##......##ag##......",
"..##jjjiiikkk#........##........",
"....##jjjkkk##..................",
"......##jk##....................",
"........##......................"};

