/* XPM */
static char * kmiD4_xpm[] = {
"32 32 33 1",
" 	c #C0C0C0C0C0C0",
".	c #000000000000",
"X	c #BEBEBEBEBEBE",
"o	c #BBBBBBBBBBBB",
"O	c #B9B9B9B9B9B9",
"+	c #B6B6B6B6B6B6",
"@	c #B4B4B4B4B4B4",
"#	c #B1B1B1B1B1B1",
"$	c #AFAFAFAFAFAF",
"%	c #ACACACACACAC",
"&	c #A9A9A9A9A9A9",
"*	c #A7A7A7A7A7A7",
"=	c #A4A4A4A4A4A4",
"-	c #A3A3A3A3A3A3",
";	c #9F9F9F9F9F9F",
":	c #9E9E9E9E9E9E",
">	c #9B9B9B9B9B9B",
",	c #989898989898",
"<	c #969696969696",
"1	c #939393939393",
"2	c #919191919191",
"3	c #8E8E8E8E8E8E",
"4	c #8C8C8C8C8C8C",
"5	c #898989898989",
"6	c #888888888888",
"7	c #848484848484",
"8	c #818181818181",
"9	c #7F7F7F7F7F7F",
"0	c #7C7C7C7C7C7C",
"q	c #7B7B7B7B7B7B",
"w	c #787878787878",
"e	c #767676767676",
"r	c #737373737373",
"                            ... ",
"XXXXXXXXXXXXXXXXXXXXXX.........X",
"ooooooooooooooooo..............o",
"OOOOOOOOOOO....................O",
"++++++++.....................+++",
"@@@@@@@@...............@@@...@@@",
"########.........#########...###",
"$$$$$$$$.......$$$$$$$$$$$...$$$",
"%%%%%%%%%%%%...%%%%%%%%%%%...%%%",
"&&&&&&&&&&&&...&&&&&&&&&&&...&&&",
"************...***********...***",
"============...===========...===",
"------------...-----------...---",
";;;;;;;;;;;;...;;;;;;;;;;;...;;;",
"::::::::::::...:::::::::::...:::",
">>>>>>>>>>>>...>>>>>>>>>>>...>>>",
",,,,,,,,,,,,...,,,,,,,,,.....,,,",
"<<<<<<<<<<<<...<<<<<<........<<<",
"111111111111...11111.........111",
"2222222222.....2222..........222",
"3333333........333...........333",
"444444.........444...........444",
"55555..........555...........555",
"6666...........666...........666",
"7777...........7777.........7777",
"8888...........88888.......88888",
"9999...........999999.....999999",
"00000.........000000000000000000",
"qqqqqq.......qqqqqqqqqqqqqqqqqqq",
"wwwwwww.....wwwwwwwwwwwwwwwwwwww",
"eeeeeeeeeeeeeeeeeeeeeeeeeeeeeeee",
"rrrrrrrrrrrrrrrrrrrrrrrrrrrrrrrr"};
