/* XPM */
static char * kscd_xpm[] = {
"28 27 13 1",
" 	c #C71BC30BC71B",
".	c #38E3FBEE30C2",
"X	c #71C682079658",
"o	c #B6DA20812081",
"O	c #51445144FFFF",
"+	c #FFFFFFFF0000",
"@	c #FFFF0000FFFF",
"#	c #A699A289A699",
"$	c #B6DAB2CAB6DA",
"%	c #FFFF14514103",
"&	c #B6DAB6DAB6DA",
"*	c #F7DEF7DEF7DE",
"=	c #965892489658",
"                            ",
"          .X.XXXX           ",
"       XX.X.XXXXXXXX        ",
"     oOX+..XXXXXXXXXXX      ",
"    X@oO.+..XX#$XXXXXXX     ",
"   ..X@oO+.XX##XX##XXXXX    ",
"  O++.X@o+..X$#XX$X$XXXXX   ",
"  ooO++X@@..XX####X##XXXX   ",
" @%@ooO+.+%.XXXXX$X&XXXXXX  ",
" X@X%@oO++O.###XX##XXXXXXX  ",
"XXXXXX%@oO+#***#XXXXXXXXXXX ",
"..........#*****#XXXXXXXXXX ",
"XXXXXXXXX#**X&&**#XXXXXXXXX ",
"XXXXXXXXX#*X$*=&*#XXXXXXXXX ",
"XXXXXXXXX#**X&$**#XXXXXXXXX ",
"XXXXXXXXXX#*****#@@XXXXXXXX ",
"XXXX=XXXXXX#***#.Oo@@@XXXXX ",
" XX##XXXXXXX###X+..Ooo@@XXX ",
" XXXX#XXXXXXXXXX%+..+Ooo@@  ",
"  XX#X#XXXXXXXXXX++..+OOO#  ",
"  XXXX=XXXXXXXXXX+%+...+O   ",
"   XXXX=#XXXXXXXXX+X+.+.#   ",
"    XXXX=X=XXXXXXX+%X++     ",
"     XXXX=XXXXXXXXX+%X      ",
"       XXXXXXXXXXXX+=       ",
"         =XXXXXXX=      $&  ",
"                            "};
