/* XPM */
/* Drawn  by Nico Shirwing for the K Desktop Environment */
/* See http://www.kde.org */
static char*kscd[]={
"32 32 16 1",
"# c #000000",
"a c #c0c0c0",
"j c #ffffff",
"k c #808080",
"b c #585858",
"l c #008000",
"m c #008080",
"n c #00c0c0",
"d c #ff0000",
"f c #00ff00",
"g c #00ffff",
"h c #ffc0c0",
"i c #c0ffff",
"e c #ffa858",
"c c #004040",
". c None",
".##############################.",
"#aaaaaaaaaaaaaaaaaaaaaaaaaaaaaa#",
"#abbbbbbbbbbbbbbbbbbbbbbbbbbbbb#",
"#ab####################bbaaabbb#",
"#ab#cccccccccdddccccccababbb#bb#",
"#ab#ccccccccccccccccccababbb#bb#",
"#ab#ccccceeeceeeccccccab#bbb#bb#",
"#ab#ccccccccccccccccccabb###bbb#",
"#ab#cfffcfffcfffcfffccabbaaabbb#",
"#ab#ccccccccccccccccccababbb#bb#",
"#ab#cfffcfffcfffcfffccababbb#bb#",
"#ab#ccccccccccccccccccab#bbb#bb#",
"#ab#aaaaaaaaaaaaaaaaaaabb###bbb#",
"#abbbbbbbbbbbbbbbbbbbbbbbbbbbbb#",
"#bbbbbbbbbbbbbbbbbbbbbbbbbbbbbb#",
"################################",
"#aaaaaaaaaaaaaaaaaaaaaaaaaaaaaa#",
"#abbb#####bbbbbbbbbbbbbbbbbbbbb#",
"#ab##aaaaa##aaaaaaaaaaaaaaaaabb#",
"#a#ggaaaaaaa#bbbbbbbbbbbbbbb#bb#",
"##higgaaaaaja#bbbbbbbbbbbbbb#bb#",
"##hhigaaaajaa#bbbbbbbbbbbbbb#bb#",
"#aaahiaaajaaaa#bbbbbbbbbbbbb#bb#",
"#aaaaak#kaaaaa###############bb#",
"#aaaaa#k#aaaaa#bbbbbbbbbbbbbbbb#",
"#aaaaak#kaaaaa#aa#baa#baa#bffbb#",
"#aaaajaaaihaaa#a##ba##ba##bflbb#",
".#aajaaaagihh#bbbbbbbbbbbbbbbbb#",
".#ajaaaaaggih#bbbbbbbbbbbbbbbbb#",
"..#aaaaaaagg###################.",
"...##aaaaa##..........#mninm#...",
"...#######............#######..."};

