/* XPM */
static char*mini[]={
"16 16 12 1",
"j c #008000",
"c c #ffa858",
"f c #c3c3c3",
"e c #00ff00",
"i c #ffc0c0",
"h c #00ffff",
"# c #000000",
"b c #004040",
". c None",
"g c #c0ffff",
"a c #585858",
"d c #ff0000",
".##############.",
"#..............#",
"#.##########aaa#",
"#.#bbbcbdbb.aaa#",
"#.#bebebebb.aaa#",
"#.#bebebebb.aaa#",
"#.#.........aaa#",
"################",
"#a#fff#........#",
"##gh.ff#aaaaaaa#",
"#fig#fff#aaaa#a#",
"#.f#f#ff######a#",
"#.ff#gif#.a.aee#",
"f#...hg##aaaajj#",
".f#..f#####aaa#.",
"..f###.....###.."};
