#define eject_width 16
#define eject_height 15
static unsigned char eject_bits[] = {
   0x00, 0x00, 0x00, 0x00, 0x80, 0x01, 0x40, 0x02, 0x20, 0x04, 0x10, 0x08,
   0x08, 0x10, 0xfc, 0x3f, 0x00, 0x00, 0x00, 0x00, 0xfc, 0x3f, 0x04, 0x20,
   0xfc, 0x3f, 0x00, 0x00, 0x00, 0x00};
