#define ff_width 16
#define ff_height 15
static unsigned char ff_bits[] = {
   0x00, 0x00, 0x00, 0x00, 0x04, 0x01, 0x0c, 0x03, 0x14, 0x05, 0x24, 0x09,
   0x44, 0x11, 0x84, 0x21, 0x44, 0x11, 0x24, 0x09, 0x14, 0x05, 0x0c, 0x03,
   0x04, 0x01, 0x00, 0x00, 0x00, 0x00};
