/* XPM */
static char * kmedia_xpm[] = {
"32 32 10 1",
" 	c None",
".	c #D8E0D8",
"+	c #004000",
"@	c #C0C000",
"#	c #808000",
"$	c #000000",
"%	c #585858",
"&	c #C3C3C3",
"*	c #404000",
"=	c #808080",
"................................",
"................................",
"................................",
".........++++++.................",
".......++@#@##+++..$$$$$........",
"......+#@#@##+###+$%%%%%$.......",
".....++@#@###+###++&&&&%%$......",
".....++++##+++##+#+%%%%%&%$.....",
"....+@##++++++++###+%%%%%%$.....",
"....+#@###++.++####+%%%%%&%$....",
"....+###+++++++####+%%%%%%%$%...",
"....++++####+++####+$$$%%%%$%%..",
".....+######+#++##+%$&$%%%%%$%%.",
".....+######+###+++$&&%$%%%%$%%.",
"......+#####+####+%$&%%$%%%%$%%.",
".......++###+##++%%$&%%$%%%%$%%.",
"...#*#...++++++##%%$&%%$%%%%$%%.",
"..#*#*#*......$%##%$&%%$%%%=$%%.",
".#*...*#*#....$%#*%%$%$%%%=%$%%.",
".*#....*#*#...$%*#%%$$$%%=%=$%%.",
".#*......#*#...$##%%%%%%=%=$%%..",
".*#.......#*#*###%%=%=%=%=%$%...",
"..*#.......#*###%&%%=%=%=%=$....",
"...*#...........$%%=%=%=%=$.....",
"....*#..........$%%%=%=%=%$.....",
".....*#..........$%%%=%=%$......",
"......*#..........$%%%=%$.......",
".......*#..........$$$$$........",
"........*#......................",
"................................",
"................................",
"................................"};
