/* XPM */
static char*mediax2[]={
"32 32 17 1",
"m c #808080",
"a c #008000",
"h c #ffa858",
"k c #a0a0a4",
"n c #c0c0c0",
"f c #00ff00",
"d c #808000",
"l c #404000",
"c c #c05800",
"# c #000000",
"g c #ff8000",
"j c #800000",
"o c #ffdca8",
". c None",
"e c #c00000",
"i c #585858",
"b c #00c000",
"....########....................",
"..##abababab##..................",
".#baccccbbccbb#.................",
"#bbbdceebcccefb#................",
"#bddbbbbfbedfbf#................",
"#becceb##fbfbdb#................",
"#bbcebfbfbccghf#..#####.........",
".#bdbfcccfdcgf#..#iiiii#........",
"#jfbfeggdbfbfbj##iikkkii#.......",
"#dccbfbfbfbfjjj#iikiiiiii#......",
"#bdcgljgccjjjdf#ikiiiiiki#......",
".#bdchlggccjbf#iiiiiiiiiii#.....",
"..#blchlbbbbb##iiiiiiiiiki##....",
"...###ch#####.#iiiiiiiiiii#m#...",
"......#ch#...#iiiii###iiiii#k#..",
".......#ch#..#iiiii#n#iiiii#m#..",
".......#ch#..#iiii#nni#iiii#km#.",
"........#co#.#iiii#nii#iiii#mk#.",
".........#c#.#iiii#nii#iiii#mm#.",
"..........##.#iiii#nii#iimi#mm#.",
".........#c#.#iiii#nii#imim#mm#.",
"........#hc#.#iiiii#i#iiimi#m#..",
".......#hc#..#iiiii###iimim#m#..",
".....##hc#....#iiiiiiiimim#m#...",
"...##hcc#.....#iiimimimimi##....",
"..#hcc##......#ikiimimimim#.....",
".#cc##.........#iimimimim#......",
"#c##...........#iiimimimi#......",
"##h#............#iiimimi#.......",
".#ch#............#iiimi#........",
"..#ch#............#####.........",
"...#ch#........................."};
