/* XPM */
static char *new-icon[] = {
/* width height num_colors chars_per_pixel */
"    32    32        7            1",
/* colors */
". c #000000",
"# c #586058",
"a c #604818",
"b c #70a800",
"c c #989c98",
"d c #d8e0d8",
"e c none",
/* pixels */
"eeeeeeeeeeeeeeeeeeeeeeeeeeeeeeee",
"eeeeeeeeeeeeeeeeeeeeeeeeeeeeeeee",
"eeeeeeeeeeeeeeeeeeeeeeeeeeeeeeee",
"eeeeeeeeebbbbbbeeeeeeeeeeeeeeeee",
"eeeeeeebbaaaaabbbee.....eeeeeeee",
"eeeeeebaaaaaabaaab.#####.eeeeeee",
"eeeeebaaaaaaabaaabbdddd##.eeeeee",
"eeeeebbbaaabbbaabab#####d#.eeeee",
"eeeebaaabbbbbbbbaaab######.eeeee",
"eeeebaaaaabbebbaaaab#####d#.eeee",
"eeeebaaabbbbbbbaaaab#######.#eee",
"eeeebbbbaaaabbbaaaab...####.##ee",
"eeeeebaaaaaababbaab#.d.#####.##e",
"eeeeebaaaaaabaaabbb.dd#.####.##e",
"eeeeeebaaaaabaaaab#.d##.####.##e",
"eeeeeeebbaaabaabb##.d##.####.##e",
"eeeaaaeeebbbbbbaa##.d##.####.##e",
"eeaaaaaaeeeeee.#aa#.d##.###c.##e",
"eaaeeeaaaaeeee.#aa##.#.###c#.##e",
"eaaeeeeaaaaeee.#aa##...##c#c.##e",
"eaaeeeeeeeaaeee.aa######c#c.##ee",
"eaaeeeeeeeeaaaaaa##c#c#c#c#.#eee",
"eeaaeeeeeeeeaaaa#e##c#c#c#c.eeee",
"eeeaaeeeeeeeeeee.##c#c#c#c.eeeee",
"eeeeaaeeeeeeeeee.###c#c#c#.eeeee",
"eeeeeaaeeeeeeeeee.###c#c#.eeeeee",
"eeeeeeaaeeeeeeeeee.###c#.eeeeeee",
"eeeeeeeaaeeeeeeeeee.....eeeeeeee",
"eeeeeeeeaaeeeeeeeeeeeeeeeeeeeeee",
"eeeeeeeeeeeeeeeeeeeeeeeeeeeeeeee",
"eeeeeeeeeeeeeeeeeeeeeeeeeeeeeeee",
"eeeeeeeeeeeeeeeeeeeeeeeeeeeeeeee"
};
