#define nexttrk_width 16
#define nexttrk_height 15
static unsigned char nexttrk_bits[] = {
   0x00, 0x00, 0x00, 0x00, 0x41, 0x70, 0xc3, 0x50, 0x45, 0x51, 0x49, 0x52,
   0x51, 0x54, 0x61, 0x58, 0x51, 0x54, 0x49, 0x52, 0x45, 0x51, 0xc3, 0x50,
   0x41, 0x70, 0x00, 0x00, 0x00, 0x00};
