#define playpause_width 16
#define playpause_height 15
static unsigned char playpause_bits[] = {
   0x00, 0x00, 0x00, 0x00, 0x08, 0x0e, 0x18, 0x0a, 0x28, 0x0a, 0x48, 0x0a,
   0x88, 0x0a, 0x08, 0x0b, 0x88, 0x0a, 0x48, 0x0a, 0x28, 0x0a, 0x18, 0x0a,
   0x08, 0x0e, 0x00, 0x00, 0x00, 0x00};
