#define poweroff_width 16
#define poweroff_height 15
static unsigned char poweroff_bits[] = {
   0x00, 0x00, 0x00, 0x00, 0xfe, 0x10, 0xaa, 0x18, 0xd6, 0x10, 0xaa, 0x10,
   0xd6, 0x10, 0xfe, 0x00, 0x82, 0x38, 0x82, 0x64, 0x82, 0x54, 0x82, 0x4c,
   0xfe, 0x38, 0x00, 0x00, 0x00, 0x00};
