#define prevtrk_width 16
#define prevtrk_height 15
static unsigned char prevtrk_bits[] = {
   0x00, 0x00, 0x00, 0x00, 0x0e, 0x82, 0x0a, 0xc3, 0x8a, 0xa2, 0x4a, 0x92,
   0x2a, 0x8a, 0x1a, 0x86, 0x2a, 0x8a, 0x4a, 0x92, 0x8a, 0xa2, 0x0a, 0xc3,
   0x0e, 0x82, 0x00, 0x00, 0x00, 0x00};
