#define rew_width 16
#define rew_height 15
static unsigned char rew_bits[] = {
   0x00, 0x00, 0x00, 0x00, 0x80, 0x20, 0xc0, 0x30, 0xa0, 0x28, 0x90, 0x24,
   0x88, 0x22, 0x84, 0x21, 0x88, 0x22, 0x90, 0x24, 0xa0, 0x28, 0xc0, 0x30,
   0x80, 0x20, 0x00, 0x00, 0x00, 0x00};
